<?xml version="1.0" standalone="no"?>
<!DOCTYPE svg PUBLIC "-//W3C//DTD SVG 20010904//EN"
 "http://www.w3.org/TR/2001/REC-SVG-20010904/DTD/svg10.dtd">
<svg version="1.0" xmlns="http://www.w3.org/2000/svg"
 width="700.000000pt" height="700.000000pt" viewBox="0 0 700.000000 700.000000"
 preserveAspectRatio="xMidYMid meet">
<metadata>
Created by potrace 1.14, written by Peter Selinger 2001-2017
</metadata>
<g transform="translate(0.000000,700.000000) scale(0.100000,-0.100000)"
fill="#000000" stroke="none">
<path d="M1749 6996 c-2 -2 -30 -6 -62 -10 -31 -3 -67 -8 -80 -11 -12 -2 -35
-6 -52 -9 -65 -9 -240 -58 -328 -92 -594 -229 -1030 -729 -1178 -1351 -48
-203 -48 -183 -45 -2063 1 -971 5 -1776 8 -1790 3 -14 9 -45 12 -70 4 -25 16
-83 27 -130 116 -480 397 -882 804 -1152 143 -95 337 -189 470 -227 145 -43
258 -67 365 -78 41 -4 867 -8 1835 -8 1866 0 1796 -1 1989 41 12 3 30 7 42 9
12 3 70 21 130 41 405 132 753 396 993 753 34 50 61 92 61 95 0 3 13 27 28 53
103 178 194 463 220 692 9 84 9 3510 0 3612 -4 41 -9 82 -12 90 -3 7 -7 32
-10 54 -8 61 -53 225 -87 317 -64 176 -194 400 -314 544 -70 84 -206 219 -260
259 -22 17 -47 36 -55 44 -27 26 -203 137 -280 178 -199 104 -448 178 -680
202 -78 8 -3532 15 -3541 7z"/>
</g>
</svg>
