<svg aria-hidden="true" style="position: absolute; width: 0; height: 0; overflow: hidden;" version="1.1" xmlns="http://www.w3.org/2000/svg" xmlns:xlink="http://www.w3.org/1999/xlink">
<defs>
<symbol id="icon-lock-02" viewBox="0 0 31 32">
<path stroke-linejoin="round" stroke-linecap="round" stroke-miterlimit="4" stroke-width="2.56" d="M21.76 14.72v-3.84c0-3.535-2.865-6.4-6.4-6.4s-6.4 2.865-6.4 6.4v3.84M9.984 27.52h10.752c2.151 0 3.226 0 4.047-0.419 0.723-0.368 1.31-0.956 1.678-1.678 0.419-0.822 0.419-1.897 0.419-4.047v-0.512c0-2.151 0-3.226-0.419-4.047-0.368-0.723-0.956-1.31-1.678-1.678-0.822-0.419-1.897-0.419-4.047-0.419h-10.752c-2.151 0-3.226 0-4.047 0.419-0.723 0.368-1.31 0.956-1.678 1.678-0.419 0.822-0.419 1.897-0.419 4.047v0.512c0 2.151 0 3.226 0.419 4.047 0.368 0.723 0.956 1.31 1.678 1.678 0.821 0.419 1.897 0.419 4.047 0.419z"></path>
</symbol>
<symbol id="icon-mail-01" viewBox="0 0 31 32">
<path stroke-linejoin="round" stroke-linecap="round" stroke-miterlimit="4" stroke-width="2.56" d="M2.56 9.6l10.451 7.316c0.846 0.593 1.27 0.889 1.73 1.003 0.407 0.101 0.832 0.101 1.238 0 0.46-0.115 0.883-0.411 1.73-1.003l10.451-7.316M8.704 26.24h13.312c2.151 0 3.226 0 4.047-0.419 0.723-0.368 1.31-0.956 1.678-1.678 0.419-0.822 0.419-1.897 0.419-4.047v-8.192c0-2.151 0-3.226-0.419-4.047-0.368-0.723-0.956-1.31-1.678-1.678-0.822-0.419-1.897-0.419-4.047-0.419h-13.312c-2.151 0-3.226 0-4.047 0.419-0.723 0.368-1.31 0.956-1.678 1.678-0.419 0.821-0.419 1.897-0.419 4.047v8.192c0 2.151 0 3.226 0.419 4.047 0.368 0.723 0.956 1.31 1.678 1.678 0.821 0.419 1.897 0.419 4.047 0.419z"></path>
</symbol>
<symbol id="icon-user-01" viewBox="0 0 31 32">
<path stroke-linejoin="round" stroke-linecap="round" stroke-miterlimit="4" stroke-width="2.56" d="M25.6 27.52c0-1.786 0-2.679-0.22-3.406-0.496-1.636-1.777-2.917-3.413-3.413-0.727-0.22-1.62-0.22-3.406-0.22h-6.4c-1.786 0-2.679 0-3.406 0.22-1.636 0.496-2.917 1.777-3.413 3.413-0.22 0.727-0.22 1.62-0.22 3.406M21.12 10.24c0 3.181-2.579 5.76-5.76 5.76s-5.76-2.579-5.76-5.76c0-3.181 2.579-5.76 5.76-5.76s5.76 2.579 5.76 5.76z"></path>
</symbol>
<symbol id='trash' viewBox="0 0 22 22">
<path stroke-width="2" stroke-linecap="round" stroke-linejoin="round" d="M14.6667 5.49998V4.76665C14.6667 3.73988 14.6667 3.2265 14.4668 2.83433C14.2911 2.48937 14.0106 2.2089 13.6656 2.03313C13.2735 1.83331 12.7601 1.83331 11.7333 1.83331H10.2667C9.2399 1.83331 8.72652 1.83331 8.33435 2.03313C7.98939 2.2089 7.70892 2.48937 7.53315 2.83433C7.33333 3.2265 7.33333 3.73988 7.33333 4.76665V5.49998M9.16667 10.5416V15.125M12.8333 10.5416V15.125M2.75 5.49998H19.25M17.4167 5.49998V15.7666C17.4167 17.3068 17.4167 18.0769 17.1169 18.6651C16.8533 19.1826 16.4326 19.6033 15.9151 19.8669C15.3269 20.1666 14.5568 20.1666 13.0167 20.1666H8.98333C7.44319 20.1666 6.67312 20.1666 6.08486 19.8669C5.56741 19.6033 5.14672 19.1826 4.88307 18.6651C4.58333 18.0769 4.58333 17.3068 4.58333 15.7666V5.49998"/>
</symbol>
</defs>
</svg>
