<svg aria-hidden="true" style="position: absolute; width: 0; height: 0; overflow: hidden;"
    version="1.1" xmlns="http://www.w3.org/2000/svg" xmlns:xlink="http://www.w3.org/1999/xlink">
    <defs>
        <symbol id="plus" viewBox="0 0 14 14">
            <path d="M2.1875 7H11.8125" stroke-width="1.5" stroke-linecap="round"
                stroke-linejoin="round" />
            <path d="M7 2.1875V11.8125" stroke-width="1.5" stroke-linecap="round"
                stroke-linejoin="round" />
        </symbol>
        <symbol id="minus" viewBox="0 0 14 14">
            <path d="M2.1875 7H11.8125" stroke-width="1.5" stroke-linecap="round"
                stroke-linejoin="round" />
        </symbol>
        <symbol id="capture" viewBox="0 0 64 64">
            <path d="M56.381 22.8571V13.696C56.3811 12.0826 55.7414 10.535 54.6023 9.39244C53.4631 8.24988 51.9175 7.60557 50.3041 7.60073L41.143 7.5733M56.381 41.1428V50.2857C56.381 51.9022 55.7389 53.4526 54.5958 54.5957C53.4527 55.7387 51.9024 56.3809 50.2858 56.3809H41.143M22.8572 7.5733L13.6961 7.60378C12.0827 7.60862 10.5371 8.25293 9.39792 9.39549C8.2588 10.538 7.61913 12.0856 7.61914 13.699V22.8571M22.8572 56.3809H13.7144C12.0978 56.3809 10.5475 55.7387 9.40439 54.5957C8.26132 53.4526 7.61914 51.9022 7.61914 50.2857V41.1428" stroke="#FAFAFA" stroke-linecap="round" stroke-linejoin="round" fill="none"/>
        </symbol>
        <symbol id="photo-camera" viewBox="0 0 24 24">
            <path d="M12 17.5C13.25 17.5 14.3127 17.0627 15.188 16.188C16.0627 15.3127 16.5 14.25 16.5 13C16.5 11.75 16.0627 10.6873 15.188 9.812C14.3127 8.93733 13.25 8.5 12 8.5C10.75 8.5 9.68733 8.93733 8.812 9.812C7.93733 10.6873 7.5 11.75 7.5 13C7.5 14.25 7.93733 15.3127 8.812 16.188C9.68733 17.0627 10.75 17.5 12 17.5ZM4 21C3.45 21 2.97933 20.8043 2.588 20.413C2.196 20.021 2 19.55 2 19V7C2 6.45 2.196 5.97933 2.588 5.588C2.97933 5.196 3.45 5 4 5H7.15L9 3H15L16.85 5H20C20.55 5 21.021 5.196 21.413 5.588C21.8043 5.97933 22 6.45 22 7V19C22 19.55 21.8043 20.021 21.413 20.413C21.021 20.8043 20.55 21 20 21H4Z" fill="#FAFAFA"/>
        </symbol>
        <symbol id="delete-button" viewBox="0 0 18 19">
            <path d="M14.0625 4.4375L3.9375 14.5625" stroke-width="1.5" stroke-linecap="round" stroke-linejoin="round"/>
            <path d="M14.0625 14.5625L3.9375 4.4375" stroke-width="1.5" stroke-linecap="round" stroke-linejoin="round"/>    
        </symbol>
        <symbol id="cat"  viewBox="0 0 745 745">
            <path d="M460.7 56.8C444 65.7 438 72.6 438 83.2c0 6.6 3.1 13 15.7 32.3 10.3 15.9 29.6 49 45 77 11.5 21 28.3 54.7 28.3 56.7 0 2.2-7 11.9-13.2 18.3l-5.9 6-2.2-2.7c-1.2-1.5-4.1-7.2-6.5-12.7-4.9-11.2-9.4-18.1-11.9-18.1-2.4 0-18.5 12.6-29.8 23.2-17.4 16.5-33.6 39.1-41.7 58.2l-3.3 7.8-28-.8c-46.9-1.5-79.6-1.1-89 .9-9.1 2-18.5 6.1-23.2 10.1-7.3 6.2-15.3 29.9-15.5 45.8-.1 7.2.3 9.4 2.3 13.5 1.8 3.7 3 4.9 5 5.1 3.3.4 8.3-3.7 11-8.9l2-3.9 2.7 2c2.1 1.5 5.4 2.2 14.2 3 13.2 1.1 14 .8 14-6.6 0-2.4.4-4.6 1-4.9.5-.3 8.1.1 16.7 1 8.7.8 28.1 2.2 43.1 2.9 14.9.7 27.4 1.5 27.7 1.8.3.3-1.3 7.9-3.4 16.9-8.4 35.2-11.9 56.8-13 79.9l-.6 14.5-8.7-.4c-37.3-1.4-58.4 29.1-42.2 61.1 3.1 6.1 15.4 18.7 20.2 20.7 4.1 1.7 4 3.4-.3 8.2-2.6 2.9-3.5 4.8-3.5 7.4 0 5.2 2.8 7.5 9.3 7.5l5.2.1 2.5 5.2c3 6.3 6.6 8.1 10.8 5.4 6.9-4.3 6.8-4.3 11.2-.3 6.5 5.9 10.1 4.7 17.1-5.5l4.1-6 10.6.6c5.9.4 11.4.9 12.2 1.1.8.3 40.9.9 89 1.4 56.5.6 89.4 1.3 92.7 2 3.1.7 7.6 2.8 11.4 5.5l6.3 4.4 4.5-2.7c3.8-2.2 5.9-2.7 11.6-2.7l7-.1 1.3-4.5c.8-2.4 1.5-5 1.8-5.7.2-.8 2.5-1.2 6.8-1.2 7.6 0 8.6-1 8.6-8.3 0-7.1-4.8-12.5-13.5-15.2-1.9-.6-1.9-.7.4-2.4 1.4-1 6.6-4.2 11.7-7.1 16.6-9.4 22.2-17.2 23.1-32.3 1-15.5-3.6-27.8-14.3-38.3-7.8-7.8-14.6-10.6-25.2-10.7-6.6 0-8.1.4-15.1 4l-7.8 3.9-.6-9.5c-.4-5.3-2.4-20.2-4.6-33.1-5.1-30.5-5-30.1-3.6-30.7.7-.2 3.8.3 7 1.2 7.7 2.3 10.8 1 13.1-5.4.9-2.5 2.5-5.4 3.4-6.4 1.7-1.8 1.9-1.6 6.5 4.3 7.8 10.1 15.2 22.7 18.6 31.3 3.4 8.9 6.9 23.9 6.9 30 0 3.1.5 4 3.1 5.6 11.9 7.2 35.3-2.3 39.9-16.3 1-3.1.9-4.1-.7-6.9-2.2-3.8-11-7.7-12.4-5.5-1.1 1.7-.2 2.8 3.8 4.4 1.8.8 3.6 2.1 4 2.9 1.4 3.9-6.1 13.1-13.3 16.1-3.8 1.6-12.1 1.8-15.7.5-3.4-1.3-6.1-8.3-5.2-13.8.8-5.8 6-13.1 11.9-17.1 5.9-3.9 9.4-4.1 13.6-.6 1.7 1.5 3.3 2.4 3.6 2.1.3-.3-.2-3.4-1.1-6.8-1.4-5.6-6.3-16.3-13.7-29.7-2.2-4.1-2.2-4.3-.5-5.3 3.5-2 8.8-7.2 10.3-10 2.2-4.3 1.7-10-1.3-16-3.2-6.4-24.9-33.5-30.6-38.4-4.3-3.7-11.3-6.5-16.3-6.5-2.6 0-3.9-.9-7.6-5.3-8.6-10.2-10.6-13.8-43.6-78.2-12.9-25.3-27.2-53-31.7-61.5s-16.2-31-26-50c-28.3-54.8-34.3-65.1-45.5-77.3-2.8-3.1-7.8-7.4-11.2-9.7-5.3-3.5-6.7-4-11.7-4-4.9 0-7 .8-16.4 5.8zm22.6 2.1c6.6 2.5 13.4 11.1 23.8 30.2 3.4 6.3 7.5 13.6 9.2 16.2 1.6 2.6 2.6 5.1 2.3 5.5-.4.4-3.3.9-6.4 1.2-4.2.4-5.7.9-5.7 2 0 1.2 1.6 1.5 8.4 1.5h8.5l3.4 6c4.8 8.5 27.2 51.7 53.9 104 24.9 48.7 41.4 79.2 55.2 102.5l8.9 14.8-6.7 6.5c-7.7 7.5-9.7 8.7-14.6 8.7-4.6 0-8.4-2-12.5-6.6-4.1-4.7-5.9-9-11.5-27.7-7.8-25.7-14.8-36.4-43.1-65.8-9.7-10.1-18-18.5-18.4-18.7-.4-.2-1.4.4-2.2 1.2-1.3 1.2-2.7-.7-11-14.8-5.3-8.8-10.8-18.4-12.2-21.3-3.2-6.5-7.6-21.4-7.6-25.9 0-3.7-1.5-4.4-3.5-1.7-.7.9-1.7 1.3-2.3.9-.6-.3-5.3-8.8-10.5-18.9-5.2-10-13.1-24.4-17.6-32.1-7.9-13.4-9.2-16.8-7.1-18.1.6-.4-2-3.9-5.7-8-8.9-9.6-13.6-17.4-12.7-20.9.8-3.4 7.5-10.9 13.2-14.8 7.8-5.4 18.8-8 24.5-5.9zm8.1 197.4c1.4 2.3 4.5 8.9 7 14.6 2.5 5.8 5 10.9 5.5 11.4 1.6 1.6 8.3-3.6 17.4-13.6 4.5-4.9 10.5-11.4 13.4-14.4l5.2-5.5 3.2 1.9c1.7 1 7.3 7 12.4 13.3 5.2 6.3 12.6 15.3 16.5 20 8.1 9.6 11.8 14.5 10.4 13.8-.5-.2-3.6-1.7-6.8-3.2-23-11.1-57.7.1-64.2 20.8l-1.7 5.3-7.7-8.1c-8.7-9-16.1-14-25.9-17.3-13.1-4.5-29.7-2.2-39.7 5.4l-4.8 3.7 3.4-4.8c7.5-10.4 19.4-23.7 33.4-37.4l14.7-14.3 2.9 2.1c1.7 1.2 4.1 4 5.4 6.3zm75.7 41.7c11.4 3.5 16.8 9.8 18.9 22.3 2.3 13-2.2 28.3-10.3 35.2-7.8 6.7-23.9 9.4-36.3 6.1-21.9-5.8-31.7-24.2-22.9-43.3 7.7-16.9 31.2-26.3 50.6-20.3zm-94.2 4.5c9 2.2 17.4 6.9 23.1 13.2 5.9 6.4 8 12.5 8 22.7-.1 16.1-10.2 26.4-27 27.4-18.4 1.1-35.3-7.4-41.9-21.1-3.7-7.8-4.6-13.1-3.1-20.1 1.6-7.7 6.3-14.4 12.9-18.3 8.8-5.3 16.9-6.4 28-3.8zm-47.1 15.2c-2.8 8.2-2.3 21.8 1.1 28.8 5.2 10.6 18.2 20.3 32.1 24 7.3 2 22.2 1.9 28.9-.1 2.9-.8 6.9-3 8.9-4.8 5.4-4.8 7.8-5.9 10.2-4.6 3.1 1.7 2.9 5.2-.6 12.2-1.3 2.6-2.4 5.7-2.4 7 0 2 .3 1.9 3.8-1.5 5.1-5 8-4.9 13.2.4 4 4.1 4 4.1 4 1.5 0-1.8-1.5-4.3-4.4-7.4-6.8-7.2-8.4-13.2-3.5-13.2 1.2 0 6.2 2 11.3 4.5 12.1 6 18.3 7.2 28.4 5.8 20.8-3.1 34.3-16.4 36.1-35.7l.6-7.1 2.8 7.7c3.5 9.3 7.2 15.3 14 22.5 3.7 3.9 4.8 5.8 4.2 6.7-.6.7-2.7 3.5-4.7 6.2-2.1 2.7-4 6.1-4.3 7.5-.5 2.1-1.5 2.8-5.6 3.8-9.5 2.5-15.7 11.3-13.2 18.8.7 2.1 1.7 2.9 3.9 3.1 6 .6 8.3 2.2 11 8.1 3.2 6.7 5.1 9.1 7.5 9.1 2.1 0 2.2.2 5.4 15.9 2.5 12.3 9.5 58.8 9.5 63.3 0 1.3.4 2.9.9 3.7 1.4 2.2 8.3-.2 14.8-5.2 5.1-3.8 6-4.1 11.7-4.1 19 0 34.6 20 33.4 42.8-.5 9.4-3.3 15.8-9.5 21.9-4.3 4.4-7.7 6.3-19 10.7-4.3 1.7-9.6 4.3-11.7 5.7l-3.9 2.5 2.4 1.9c1.3 1 5.3 2.8 8.7 4.1 8 2.8 11.2 5.7 11.2 9.9v3.1l-5.3-.4c-3.5-.3-6.6-1.3-9.2-3.1-2.2-1.5-4.3-2.7-4.7-2.7-1.6 0-.7 3.6 1.7 7.5 6.7 10.9-.9 14.8-11.3 5.9l-4.2-3.6v3.5c0 8.5-3.8 9.1-10.9 1.6l-4.8-5-19.9 1.1c-13.8.8-46.6.9-107.4.4l-87.5-.7-2.7 5.7c-2.3 4.6-3.2 5.6-5.3 5.6-3.2 0-6.5-3.3-6.5-6.4 0-3.6-1.3-3.9-5.1-1.1-6.6 4.8-8.8 5.6-10.9 4.5-2.8-1.5-2.5-3.7 1-7.7 5.7-6.5 2.6-7.9-7.1-3.2-5.5 2.6-7.4 3.1-8.7 2.3-5-3.2-.8-8.4 9.7-11.9 8-2.6 11.1-4.8 11.1-7.8 0-2.5-4.1-3-10.4-1.2-5.5 1.6-5.7 1.6-10.4-.6-19-9.2-27.9-36.5-18-55.8 7.5-14.7 25.6-21 39.6-13.7 3 1.5 5.6 2.5 5.9 2.2.8-.8 2.7-12.2 7.4-43.6 5.9-40.4 10.4-63.4 15.3-79.3 1.2-3.7 1.2-4.9.3-5.2-3.9-1.3-31.2-3-83.7-5.1-9.1-.3-17.3-1.1-18.3-1.6-1.6-.8-1.8-1.7-1.2-6.9.6-4.8.4-5.9-.8-5.9-2.2 0-3.4 2-4.2 7-1.2 8.1-1.2 8.2-4.5 6.5-1.5-.8-3.8-3-5-5-2-3.2-6.5-7.5-7.9-7.5-.3 0-.7 2.1-.9 4.6-.5 8.3-7.3 25.5-11.1 27.8-.6.4-1.8-.6-2.8-2.1-1.4-2.1-1.8-4.7-1.7-12.3.1-13.2 4.2-28.4 10.2-37.3 8.9-13.2 41-16.3 119.2-11.2 12.3.8 22.5 1.3 22.6 1.2.1-.1 1.8-3.8 3.8-8.2 3.5-7.6 8.3-16.5 9-16.5.2 0-.6 2.6-1.6 5.7zm235.9 27.4c3.8 1.4 7.6 5.2 13 12.9 2.6 3.6 8.4 10.4 12.9 15.1 10.8 11.2 12.3 15.1 8.8 23.9-1.9 4.7-1.7 4.7-23.9 5.5-17.6.6-25.1 1.8-30.7 4.6-4.3 2.2-7.7 6.3-8.5 10.1-.7 3.5-1.7 4.2-4.8 3.4-1.7-.4-3.3-2.3-5-5.6-2.8-5.5-3.8-5.9-10.6-3.5-5.4 1.9-6.2 1.2-6.9-6.3l-.5-5.7-5.5-.5c-4.6-.4-5.5-.8-5.8-2.6-.5-3.3 3-6.5 9.4-8.8 5.9-2.1 5.9-2.1 8-8.4 3.4-9.9 6.5-12.5 10.8-9.1 1.4 1.1 2.6 1.5 2.6.9s1.1-2.2 2.5-3.5c2.3-2.4 3-2.5 15-2.5 7 0 13.5-.5 14.6-1 2.7-1.5 2.4-6.3-.6-12.8-1.4-3-2.5-5.8-2.5-6.3 0-1.2 4.2-1.1 7.7.2zm-11.5 8.1c.8.7 1.8 2.1 2.1 3 .6 1.6-.1 1.8-5.4 1.8-5.6 0-5.9-.1-4.9-2 1.9-3.6 5.6-4.9 8.2-2.8zm28.6 58c-2.4 3.7-9.6 7.2-15.1 7.2-4.1.1-5.2-.3-7.3-2.7-1.3-1.5-2.4-3.2-2.4-3.6 0-1.2 10.2-2.8 18.9-3l7.3-.1-1.4 2.2zm9.8 3.3c2.6 1.8 5.8 8.1 5 10.1-.3.8-1.9 1.4-4.1 1.4-4.3 0-15.5-3.2-15.5-4.4 0-.4 1.7-2.6 3.9-4.7 4.2-4.2 7.2-4.9 10.7-2.4zm-15.8 10.6c4.3 1.3 7.2 2.7 7.2 3.5 0 .8-1.7 3.2-3.8 5.4-3.7 3.7-4 3.8-6.1 2.4-1.8-1.3-9.1-11.6-9.1-12.9 0-1.1 4.9-.4 11.8 1.6zm26.1 9c2.5 6.2 2.6 6.9.5 6.9-2.5 0-12.8 5.8-17.4 9.7-2.3 2-4.2 3.4-4.4 3.2-4.4-5.2-2.9-13.5 3.7-20.7 1.9-2 2.2-2.1 4.3-.7 2.4 1.5 6.4 2.1 6.4.8 0-.3-.7-1.5-1.7-2.5-1.5-1.7-1.4-1.8 2.4-1.8 3.9 0 4.1.2 6.2 5.1z"/><path d="M508.3 145c-4 1.7-7.5 6.2-6.1 7.6 1.5 1.5 10.8-5.5 10.8-8.1 0-1.8.4-1.9-4.7.5zM545.3 202c-6.5 1.4-10.9 6.3-10.1 11.1.3 1.6 1 1.3 5.9-1.7 3.6-2.1 6.1-4.5 6.9-6.4.7-1.7 1.1-3.2.9-3.4-.2-.1-1.9 0-3.6.4zM527.2 334.2c-3.3 3.3 1.7 7.8 5.3 4.8 1.9-1.6 1.9-2.5-.1-4.4-1.9-1.9-3.6-2-5.2-.4zM481.1 335.4c-1.8 2.2-.2 4.8 2.8 4.4 2-.2 2.7-.9 2.9-3.1.3-2.3 0-2.7-2.1-2.7-1.4 0-3 .6-3.6 1.4zM600.1 563.2c-2.8 4.6-9 10.3-20.5 18.8-5.5 4.1-9.4 7.6-8.7 7.8 2.4.8 19.6-8.6 24.4-13.4 4.8-4.7 8.7-10.9 8.7-13.8 0-2.9-1.9-2.6-3.9.6zM575 571.1c-7.7 5.3-20.6 15.5-21.6 17.1-1 1.5 4.7-.3 11.6-3.7 6.3-3.2 15.2-11.3 17.9-16.3 1.7-3.2.5-2.8-7.9 2.9zM547 580.1c-6.8 4.9-9.6 7.6-8.7 8.5 2.1 2.2 14.7-7.4 14.7-11.1 0-1.8.5-2.1-6 2.6zM270 314.6c-6.1 2.8-9 5.1-9 7 0 1 1.7.7 6.7-1.1 7.1-2.7 10.3-4.9 10.3-7.2 0-1.8-1.7-1.6-8 1.3zM282.5 319.4C271 323.1 262 331.3 262 338c0 1.8.3 1.7 3.4-1.2 1.9-1.8 9-6.2 15.7-9.8 6.7-3.6 12.3-7 12.3-7.5.1-1.5-6.4-1.6-10.9-.1zM161.5 524.1c-21 2.1-42.8 7-53 11.9-10.9 5.2-21.5 16.3-33 34.6-6.9 11-7.1 13.6-1.5 21.8 2.2 3.2 4 6.2 4 6.7 0 .4-3.3 2.4-7.2 4.3-9.2 4.5-12.3 6.9-11.5 8.9.8 2.1 5.4.8 12.2-3.5 8.4-5.2 10.4-6.1 13.7-5.4 6.3 1.2 7.8 5.3 3.1 8.3-3.9 2.3-7.3 5.5-7.3 6.6 0 1.9 6.5-.4 10.9-3.8 4.3-3.4 7.9-4.3 11.5-2.9 2.6 1 1.8 3.8-1.5 5.7-3.2 1.8-3.5 4-.5 4.5.9.2 3.8-.8 6.5-2.1 4.4-2.4 8.2-3.2 12.4-2.9 2.5.3 2.1 3.1-.7 4.2-1.3.5-2.7 1.4-3.2 2.1-.5.9.6 1.1 4.7.6 6.1-.7 33.1-2.2 70.1-3.7 28.4-1.2 40.8-2.3 56.3-5 21.6-3.8 40.4-10.8 48.8-18.2l3.8-3.3-1.6-5.5c-.9-3-4.5-11.6-8-19-3.4-7.4-6.8-15.8-7.4-18.6-1.4-5.8-3-7.3-13.7-12.7-13.1-6.6-32.9-11.6-53.8-13.6-12.5-1.2-42.2-1.2-54.1 0zm56.8 6.4c14.3 1.1 32.9 7.6 38.3 13.6 1.6 1.8 1.5 1.9-1.2 3-4.7 1.8-19.2 4.7-29.4 5.9-5.2.6-22.8 1.4-39 1.7-25.9.5-29.7.4-30.8-1-1.1-1.3-.6-2.1 3.5-5.3 6.4-5 8.3-7.2 8.3-9.7 0-2-.1-2-2.7.5-7.9 7.3-19.7 12-30.3 12.1-8.1 0-13-1.5-18.9-6-3.1-2.4-3.2-2.7-1.4-3.4 3.7-1.4 32.4-7.1 33-6.6.3.3-.5 1.4-1.8 2.4-4.5 3.5-9.9 9.1-9.9 10.2 0 2.3 5.1 1 8.6-2.2 2.6-2.3 3.8-4.5 4.3-7.3l.6-3.9 11.5-1.7c13.2-2.1 36-3.7 44-3.2 3 .2 9 .6 13.3.9zM110.4 553c36 14.3 101.8 15.8 150.1 3.5l13-3.4 1.8 2.2c4.9 6 9.6 19.5 11.2 32.3l.7 5-13.8 4.7c-7.7 2.5-16.4 5.2-19.4 6.1-60.6 16.3-143 12.1-166.6-8.6-8-7-9-15.3-3.2-24.4 3.4-5.4 16.6-20.4 17.9-20.4.5 0 4.2 1.3 8.3 3z"/>
            <path d="M128.3 541c-7.6 2.8-8.7 6-1.6 4.1 3.9-1.1 8.2-4.5 6.6-5.3-.4-.3-2.7.3-5 1.2z"/>
        </symbol>
    </defs>
</svg>