<svg aria-hidden="true" style="position: absolute; width: 0; height: 0; overflow: hidden;"
    version="1.1" xmlns="http://www.w3.org/2000/svg" xmlns:xlink="http://www.w3.org/1999/xlink">
    <defs>
        <symbol id="plus" viewBox="0 0 14 14">
            <path d="M2.1875 7H11.8125" stroke-width="1.5" stroke-linecap="round"
                stroke-linejoin="round" />
            <path d="M7 2.1875V11.8125" stroke-width="1.5" stroke-linecap="round"
                stroke-linejoin="round" />
        </symbol>
        <symbol id="minus" viewBox="0 0 14 14">
            <path d="M2.1875 7H11.8125" stroke-width="1.5" stroke-linecap="round"
                stroke-linejoin="round" />
        </symbol>
        <symbol id="capture" viewBox="0 0 64 64">
            <path d="M56.381 22.8571V13.696C56.3811 12.0826 55.7414 10.535 54.6023 9.39244C53.4631 8.24988 51.9175 7.60557 50.3041 7.60073L41.143 7.5733M56.381 41.1428V50.2857C56.381 51.9022 55.7389 53.4526 54.5958 54.5957C53.4527 55.7387 51.9024 56.3809 50.2858 56.3809H41.143M22.8572 7.5733L13.6961 7.60378C12.0827 7.60862 10.5371 8.25293 9.39792 9.39549C8.2588 10.538 7.61913 12.0856 7.61914 13.699V22.8571M22.8572 56.3809H13.7144C12.0978 56.3809 10.5475 55.7387 9.40439 54.5957C8.26132 53.4526 7.61914 51.9022 7.61914 50.2857V41.1428" stroke="#FAFAFA" stroke-linecap="round" stroke-linejoin="round" fill="none"/>
        </symbol>
        <symbol id="photo-camera" viewBox="0 0 24 24">
            <path d="M12 17.5C13.25 17.5 14.3127 17.0627 15.188 16.188C16.0627 15.3127 16.5 14.25 16.5 13C16.5 11.75 16.0627 10.6873 15.188 9.812C14.3127 8.93733 13.25 8.5 12 8.5C10.75 8.5 9.68733 8.93733 8.812 9.812C7.93733 10.6873 7.5 11.75 7.5 13C7.5 14.25 7.93733 15.3127 8.812 16.188C9.68733 17.0627 10.75 17.5 12 17.5ZM4 21C3.45 21 2.97933 20.8043 2.588 20.413C2.196 20.021 2 19.55 2 19V7C2 6.45 2.196 5.97933 2.588 5.588C2.97933 5.196 3.45 5 4 5H7.15L9 3H15L16.85 5H20C20.55 5 21.021 5.196 21.413 5.588C21.8043 5.97933 22 6.45 22 7V19C22 19.55 21.8043 20.021 21.413 20.413C21.021 20.8043 20.55 21 20 21H4Z" fill="#FAFAFA"/>
        </symbol>
        <symbol id="delete-button" viewBox="0 0 18 19">
            <path d="M14.0625 4.4375L3.9375 14.5625" stroke-width="1.5" stroke-linecap="round" stroke-linejoin="round"/>
            <path d="M14.0625 14.5625L3.9375 4.4375" stroke-width="1.5" stroke-linecap="round" stroke-linejoin="round"/>    
        </symbol>
    </defs>
</svg>