<svg aria-hidden="true" style="position: absolute; width: 0; height: 0; overflow: hidden;" version="1.1" xmlns="http://www.w3.org/2000/svg" xmlns:xlink="http://www.w3.org/1999/xlink">
<defs>
<symbol id="icon-youtube" viewBox="0 0 43 32">
<path d="M42.393 7.066c0-3.75-2.759-6.766-6.167-6.766-4.617-0.216-9.326-0.299-14.138-0.299h-1.5c-4.801 0-9.518 0.083-14.135 0.3-3.4 0-6.159 3.033-6.159 6.783-0.208 2.966-0.297 5.932-0.292 8.899-0.008 2.967 0.086 5.936 0.283 8.908 0 3.75 2.759 6.791 6.159 6.791 4.851 0.225 9.826 0.325 14.885 0.317 5.067 0.017 10.029-0.089 14.885-0.317 3.409 0 6.167-3.042 6.167-6.791 0.2-2.975 0.292-5.942 0.284-8.916 0.019-2.967-0.072-5.936-0.272-8.908zM17.253 24.157v-16.375l12.085 8.183-12.085 8.191z"></path>
</symbol>
<symbol id="icon-twitter" viewBox="0 0 38 32">
<path d="M37.647 4.51c-1.412 0.614-2.906 1.016-4.435 1.199 1.592-0.944 2.793-2.406 3.382-4.149l0.016-0.054c-1.413 0.842-3.058 1.483-4.809 1.828l-0.098 0.016c-1.419-1.486-3.415-2.409-5.626-2.409-0.004 0-0.008 0-0.012 0h0.001c-4.267 0-7.723 3.403-7.723 7.599-0.004 0.584 0.064 1.167 0.2 1.734-6.415-0.309-12.070-3.319-15.894-7.908l-0.029-0.035c-0.658 1.092-1.048 2.41-1.050 3.819v0.001c0 2.635 1.374 4.964 3.452 6.328-1.294-0.031-2.5-0.379-3.553-0.969l0.039 0.020v0.094c0 3.686 2.665 6.752 6.197 7.45-0.61 0.169-1.311 0.267-2.035 0.267h-0c-0.489 0-0.975-0.047-1.453-0.141 0.983 3.019 3.838 5.214 7.221 5.278-2.615 2.032-5.944 3.258-9.56 3.258-0.661 0-1.312-0.041-1.952-0.12l0.076 0.008c3.328 2.155 7.396 3.435 11.763 3.435 0.020 0 0.041-0 0.061-0h-0.003c14.227 0 21.997-11.584 21.997-21.632 0-0.329-0.009-0.659-0.024-0.979 1.516-1.088 2.794-2.393 3.819-3.887l0.034-0.053z"></path>
</symbol>
<symbol id="icon-facebook" viewBox="0 0 30 32">
<path d="M30.476 16.091c0-8.465-6.824-15.33-15.238-15.33s-15.238 6.865-15.238 15.33c0 7.653 5.571 13.995 12.858 15.147v-10.712h-3.87v-4.434h3.87v-3.377c0-3.842 2.275-5.966 5.755-5.966 1.667 0 3.412 0.3 3.412 0.3v3.773h-1.923c-1.893 0-2.484 1.181-2.484 2.395v2.874h4.226l-0.675 4.434h-3.55v10.712c7.288-1.15 12.858-7.493 12.858-15.147z"></path>
</symbol>
<symbol id="icon-instagram" viewBox="0 0 30 32">
<path d="M21.586 3.302c3.502 0.010 6.339 2.846 6.351 6.347v12.699c-0.010 3.504-2.848 6.341-6.35 6.351h-12.699c-3.502-0.012-6.338-2.849-6.348-6.35v-12.699c0.012-3.501 2.847-6.336 6.347-6.348h12.699zM21.586 0.762h-12.698c-4.888 0-8.888 4-8.888 8.888v12.698c0 4.89 4 8.89 8.888 8.89h12.698c4.89 0 8.89-4 8.89-8.89v-12.698c0-4.888-4-8.888-8.89-8.888z"></path>
<path d="M23.491 9.653c-1.052 0-1.905-0.853-1.905-1.905s0.853-1.905 1.905-1.905v0c1.052 0 1.905 0.853 1.905 1.905s-0.853 1.905-1.905 1.905v0zM15.238 10.923c0.026-0.001 0.057-0.001 0.088-0.001 2.806 0 5.080 2.275 5.080 5.080s-2.275 5.080-5.080 5.080c-0.031 0-0.062-0-0.093-0.001l0.005 0c-2.768-0.049-4.992-2.305-4.992-5.080s2.225-5.030 4.988-5.080l0.005-0zM15.238 8.384c-4.208 0-7.619 3.411-7.619 7.619s3.411 7.619 7.619 7.619v0c4.208 0 7.619-3.411 7.619-7.619s-3.411-7.619-7.619-7.619v0z"></path>
</symbol>
</defs>
</svg>
